<?xml version="1.0" encoding="UTF-8"?><svg id="Layer_2" xmlns="http://www.w3.org/2000/svg" viewBox="0 0 1231.07 1037.51"><defs><style>.cls-1{fill:#fff;}.cls-2{fill:#00D6C9;}</style></defs><g id="Layer_1-2"><path class="cls-2" d="m491.05,8.36v280.11c0,20.56-25.85,29.7-38.77,13.72L210.43,3.1c-1.59-1.96-3.98-3.1-6.5-3.1H8.68C2.14,0-1.87,7.17,1.56,12.75l353.77,479.41c10.01,16.27,10.19,36.75.46,53.19L1.18,1024.89c-3.3,5.58.72,12.62,7.2,12.62h202.64c2.73,0,5.28-1.33,6.85-3.56l233.51-332.94c12.24-17.45,39.67-8.79,39.67,12.53v315.61c0,4.62,3.74,8.36,8.36,8.36h210.52c4.62,0,8.36-3.74,8.36-8.36V8.36c0-4.62-3.74-8.36-8.36-8.36h-210.52c-4.62,0-8.36,3.74-8.36,8.36Z"/><path class="cls-1" d="m1044.59,234.66h-303.97c-6.16,0-11.16-5-11.16-11.16V11.16c0-6.16,5-11.16,11.16-11.16h479.26c9.44,0,14.61,10.98,8.6,18.26l-175.3,212.35c-2.12,2.57-5.27,4.05-8.6,4.05Z"/><path class="cls-1" d="m970.21,636.05h-232.21c-4.71,0-8.52-5-8.52-11.16v-212.35c0-6.16,3.82-11.16,8.52-11.16h366.13c7.21,0,11.16,10.98,6.57,18.26l-133.92,212.35c-1.62,2.57-4.03,4.05-6.57,4.05Z"/></g></svg>